<mxfile host="65bd71144e">
    <diagram name="Seite-1" id="K5S6Fv_6cFmYMJhr_Zrw">
        <mxGraphModel dx="474" dy="327" grid="1" gridSize="10" guides="1" tooltips="1" connect="1" arrows="1" fold="1" page="1" pageScale="1" pageWidth="827" pageHeight="1169" math="0" shadow="0">
            <root>
                <mxCell id="0"/>
                <mxCell id="1" parent="0"/>
                <mxCell id="K5w1KBM-WahlaW36bdEC-1" value="" style="rounded=0;whiteSpace=wrap;html=1;rotation=-90;" parent="1" vertex="1">
                    <mxGeometry x="290" y="290" width="240" height="60" as="geometry"/>
                </mxCell>
                <mxCell id="K5w1KBM-WahlaW36bdEC-2" value="&lt;font style=&quot;font-size: 16px;&quot;&gt;loveScore&lt;/font&gt;" style="text;html=1;align=center;verticalAlign=middle;resizable=0;points=[];autosize=1;strokeColor=none;fillColor=none;" parent="1" vertex="1">
                    <mxGeometry x="275" y="215" width="90" height="30" as="geometry"/>
                </mxCell>
                <mxCell id="K5w1KBM-WahlaW36bdEC-3" value="&lt;font style=&quot;font-size: 16px;&quot;&gt;joyScore&lt;/font&gt;" style="text;html=1;align=center;verticalAlign=middle;resizable=0;points=[];autosize=1;strokeColor=none;fillColor=none;" parent="1" vertex="1">
                    <mxGeometry x="280" y="275" width="90" height="30" as="geometry"/>
                </mxCell>
                <mxCell id="K5w1KBM-WahlaW36bdEC-4" value="&lt;font color=&quot;#000000&quot;&gt;0.03&lt;/font&gt;" style="whiteSpace=wrap;html=1;aspect=fixed;fillColor=#dae8fc;strokeColor=#6c8ebf;" parent="1" vertex="1">
                    <mxGeometry x="380" y="200" width="60" height="60" as="geometry"/>
                </mxCell>
                <mxCell id="K5w1KBM-WahlaW36bdEC-5" value="&lt;font color=&quot;#030303&quot;&gt;0.41&lt;/font&gt;" style="whiteSpace=wrap;html=1;aspect=fixed;fillColor=#dae8fc;strokeColor=#6c8ebf;" parent="1" vertex="1">
                    <mxGeometry x="380" y="260" width="60" height="60" as="geometry"/>
                </mxCell>
                <mxCell id="K5w1KBM-WahlaW36bdEC-6" value="&lt;font color=&quot;#000000&quot;&gt;0.15&lt;/font&gt;" style="whiteSpace=wrap;html=1;aspect=fixed;fillColor=#dae8fc;strokeColor=#6c8ebf;" parent="1" vertex="1">
                    <mxGeometry x="380" y="320" width="60" height="60" as="geometry"/>
                </mxCell>
                <mxCell id="K5w1KBM-WahlaW36bdEC-7" value="&lt;font color=&quot;#141414&quot;&gt;0.35&lt;/font&gt;" style="whiteSpace=wrap;html=1;aspect=fixed;fillColor=#dae8fc;strokeColor=#6c8ebf;" parent="1" vertex="1">
                    <mxGeometry x="380" y="380" width="60" height="60" as="geometry"/>
                </mxCell>
                <mxCell id="K5w1KBM-WahlaW36bdEC-8" value="&lt;font color=&quot;#000000&quot;&gt;0.00&lt;/font&gt;" style="whiteSpace=wrap;html=1;aspect=fixed;fillColor=#dae8fc;strokeColor=#6c8ebf;" parent="1" vertex="1">
                    <mxGeometry x="380" y="440" width="60" height="60" as="geometry"/>
                </mxCell>
                <mxCell id="K5w1KBM-WahlaW36bdEC-9" value="&lt;font color=&quot;#171717&quot;&gt;0.05&lt;/font&gt;" style="whiteSpace=wrap;html=1;aspect=fixed;fillColor=#dae8fc;strokeColor=#6c8ebf;" parent="1" vertex="1">
                    <mxGeometry x="380" y="500" width="60" height="60" as="geometry"/>
                </mxCell>
                <mxCell id="K5w1KBM-WahlaW36bdEC-10" value="&lt;font style=&quot;font-size: 16px;&quot;&gt;angerScore&lt;/font&gt;" style="text;html=1;align=center;verticalAlign=middle;resizable=0;points=[];autosize=1;strokeColor=none;fillColor=none;" parent="1" vertex="1">
                    <mxGeometry x="260" y="335" width="110" height="30" as="geometry"/>
                </mxCell>
                <mxCell id="K5w1KBM-WahlaW36bdEC-11" value="&lt;font style=&quot;font-size: 16px;&quot;&gt;sadnessScore&lt;/font&gt;" style="text;html=1;align=center;verticalAlign=middle;resizable=0;points=[];autosize=1;strokeColor=none;fillColor=none;" parent="1" vertex="1">
                    <mxGeometry x="245" y="395" width="120" height="30" as="geometry"/>
                </mxCell>
                <mxCell id="K5w1KBM-WahlaW36bdEC-12" value="&lt;font style=&quot;font-size: 16px;&quot;&gt;supriseScore&lt;/font&gt;" style="text;html=1;align=center;verticalAlign=middle;resizable=0;points=[];autosize=1;strokeColor=none;fillColor=none;" parent="1" vertex="1">
                    <mxGeometry x="250" y="455" width="120" height="30" as="geometry"/>
                </mxCell>
                <mxCell id="K5w1KBM-WahlaW36bdEC-13" value="&lt;font style=&quot;font-size: 16px;&quot;&gt;fearScore&lt;/font&gt;" style="text;html=1;align=center;verticalAlign=middle;resizable=0;points=[];autosize=1;strokeColor=none;fillColor=none;" parent="1" vertex="1">
                    <mxGeometry x="275" y="515" width="90" height="30" as="geometry"/>
                </mxCell>
                <mxCell id="K5w1KBM-WahlaW36bdEC-14" value="&lt;font style=&quot;font-size: 18px;&quot;&gt;&lt;b&gt;Script 1&lt;/b&gt;&lt;/font&gt;" style="text;html=1;align=center;verticalAlign=middle;resizable=0;points=[];autosize=1;strokeColor=none;fillColor=none;" parent="1" vertex="1">
                    <mxGeometry x="365" y="155" width="90" height="40" as="geometry"/>
                </mxCell>
                <mxCell id="K5w1KBM-WahlaW36bdEC-23" value="" style="rounded=0;whiteSpace=wrap;html=1;rotation=-90;" parent="1" vertex="1">
                    <mxGeometry x="370" y="290" width="240" height="60" as="geometry"/>
                </mxCell>
                <mxCell id="K5w1KBM-WahlaW36bdEC-24" value="&lt;font color=&quot;#050505&quot;&gt;0.01&lt;/font&gt;" style="whiteSpace=wrap;html=1;aspect=fixed;fillColor=#d5e8d4;strokeColor=#82b366;" parent="1" vertex="1">
                    <mxGeometry x="460" y="200" width="60" height="60" as="geometry"/>
                </mxCell>
                <mxCell id="K5w1KBM-WahlaW36bdEC-25" value="&lt;font color=&quot;#0f0f0f&quot;&gt;0.97&lt;/font&gt;" style="whiteSpace=wrap;html=1;aspect=fixed;fillColor=#d5e8d4;strokeColor=#82b366;" parent="1" vertex="1">
                    <mxGeometry x="460" y="260" width="60" height="60" as="geometry"/>
                </mxCell>
                <mxCell id="K5w1KBM-WahlaW36bdEC-26" value="&lt;font color=&quot;#080808&quot;&gt;0.01&lt;/font&gt;" style="whiteSpace=wrap;html=1;aspect=fixed;fillColor=#d5e8d4;strokeColor=#82b366;" parent="1" vertex="1">
                    <mxGeometry x="460" y="320" width="60" height="60" as="geometry"/>
                </mxCell>
                <mxCell id="K5w1KBM-WahlaW36bdEC-27" value="&lt;font color=&quot;#000000&quot;&gt;0.00&lt;/font&gt;" style="whiteSpace=wrap;html=1;aspect=fixed;fillColor=#d5e8d4;strokeColor=#82b366;" parent="1" vertex="1">
                    <mxGeometry x="460" y="380" width="60" height="60" as="geometry"/>
                </mxCell>
                <mxCell id="K5w1KBM-WahlaW36bdEC-28" value="&lt;font color=&quot;#141414&quot;&gt;0.00&lt;/font&gt;" style="whiteSpace=wrap;html=1;aspect=fixed;fillColor=#d5e8d4;strokeColor=#82b366;" parent="1" vertex="1">
                    <mxGeometry x="460" y="440" width="60" height="60" as="geometry"/>
                </mxCell>
                <mxCell id="K5w1KBM-WahlaW36bdEC-29" value="&lt;font color=&quot;#141414&quot;&gt;0.01&lt;/font&gt;" style="whiteSpace=wrap;html=1;aspect=fixed;fillColor=#d5e8d4;strokeColor=#82b366;" parent="1" vertex="1">
                    <mxGeometry x="460" y="500" width="60" height="60" as="geometry"/>
                </mxCell>
                <mxCell id="K5w1KBM-WahlaW36bdEC-30" value="&lt;font style=&quot;font-size: 18px;&quot;&gt;&lt;b&gt;Script 2&lt;/b&gt;&lt;/font&gt;" style="text;html=1;align=center;verticalAlign=middle;resizable=0;points=[];autosize=1;strokeColor=none;fillColor=none;" parent="1" vertex="1">
                    <mxGeometry x="445" y="155" width="90" height="40" as="geometry"/>
                </mxCell>
                <mxCell id="K5w1KBM-WahlaW36bdEC-31" value="" style="rounded=0;whiteSpace=wrap;html=1;rotation=-90;" parent="1" vertex="1">
                    <mxGeometry x="450" y="290" width="240" height="60" as="geometry"/>
                </mxCell>
                <mxCell id="K5w1KBM-WahlaW36bdEC-32" value="&lt;font color=&quot;#121212&quot;&gt;0.00&lt;/font&gt;" style="whiteSpace=wrap;html=1;aspect=fixed;fillColor=#ffe6cc;strokeColor=#d79b00;" parent="1" vertex="1">
                    <mxGeometry x="540" y="200" width="60" height="60" as="geometry"/>
                </mxCell>
                <mxCell id="K5w1KBM-WahlaW36bdEC-33" value="&lt;font color=&quot;#1f1f1f&quot;&gt;0.98&lt;/font&gt;" style="whiteSpace=wrap;html=1;aspect=fixed;fillColor=#ffe6cc;strokeColor=#d79b00;" parent="1" vertex="1">
                    <mxGeometry x="540" y="260" width="60" height="60" as="geometry"/>
                </mxCell>
                <mxCell id="K5w1KBM-WahlaW36bdEC-34" value="&lt;font color=&quot;#1c1c1c&quot;&gt;0.00&lt;/font&gt;" style="whiteSpace=wrap;html=1;aspect=fixed;fillColor=#ffe6cc;strokeColor=#d79b00;" parent="1" vertex="1">
                    <mxGeometry x="540" y="320" width="60" height="60" as="geometry"/>
                </mxCell>
                <mxCell id="K5w1KBM-WahlaW36bdEC-35" value="&lt;font color=&quot;#050505&quot;&gt;0.00&lt;/font&gt;" style="whiteSpace=wrap;html=1;aspect=fixed;fillColor=#ffe6cc;strokeColor=#d79b00;" parent="1" vertex="1">
                    <mxGeometry x="540" y="380" width="60" height="60" as="geometry"/>
                </mxCell>
                <mxCell id="K5w1KBM-WahlaW36bdEC-36" value="&lt;font color=&quot;#1f1f1f&quot;&gt;0.00&lt;/font&gt;" style="whiteSpace=wrap;html=1;aspect=fixed;fillColor=#ffe6cc;strokeColor=#d79b00;" parent="1" vertex="1">
                    <mxGeometry x="540" y="440" width="60" height="60" as="geometry"/>
                </mxCell>
                <mxCell id="K5w1KBM-WahlaW36bdEC-37" value="&lt;font color=&quot;#000000&quot;&gt;0.01&lt;/font&gt;" style="whiteSpace=wrap;html=1;aspect=fixed;fillColor=#ffe6cc;strokeColor=#d79b00;" parent="1" vertex="1">
                    <mxGeometry x="540" y="500" width="60" height="60" as="geometry"/>
                </mxCell>
                <mxCell id="K5w1KBM-WahlaW36bdEC-38" value="&lt;font style=&quot;font-size: 18px;&quot;&gt;&lt;b&gt;Script 3&lt;/b&gt;&lt;/font&gt;" style="text;html=1;align=center;verticalAlign=middle;resizable=0;points=[];autosize=1;strokeColor=none;fillColor=none;" parent="1" vertex="1">
                    <mxGeometry x="525" y="155" width="90" height="40" as="geometry"/>
                </mxCell>
            </root>
        </mxGraphModel>
    </diagram>
</mxfile>